<svg width="297" height="86" viewBox="0 0 297 86" fill="none" xmlns="http://www.w3.org/2000/svg">
<mask id="mask0" mask-type="alpha" maskUnits="userSpaceOnUse" x="0" y="0" width="297" height="86">
<path d="M297 43C297 66.7474 278.135 86 254.865 86C254.855 86 0 86 0 86V43C0 19.2526 18.8653 0 42.135 0C42.135 0 254.855 0 254.865 0C278.135 0 297 19.2526 297 43Z" fill="#606060"/>
</mask>
<g mask="url(#mask0)">
<path d="M297 0H0V86H297V0Z" fill="#4EDEA3"/>
<path d="M115.5 -66.1538H-49.5V99.2308H115.5V-66.1538Z" fill="url(#paint0_radial)"/>
<path d="M173.25 -4.96143H8.25V160.423H173.25V-4.96143Z" fill="url(#paint1_radial)"/>
<path d="M115.5 0H-99V165.385H115.5V0Z" fill="url(#paint2_radial)"/>
<path d="M264 0H99V165.385H264V0Z" fill="url(#paint3_radial)"/>
<path d="M330 0H165V165.385H330V0Z" fill="url(#paint4_radial)"/>
<path d="M363 -41.3462H198V124.038H363V-41.3462Z" fill="url(#paint5_radial)"/>
<path d="M330 -99.2307H99V99.2308H330V-99.2307Z" fill="url(#paint6_radial)"/>
<path d="M231 -57.8845H82.5V57.8847H231V-57.8845Z" fill="url(#paint7_radial)"/>
</g>
<path d="M42.1346 41.5907L33.4551 36.1366V42.6974L42.1346 48.1515L62.9087 32.8071C62.1735 31.1819 61.2538 29.6598 60.176 28.2651L42.1346 41.5907Z" fill="white"/>
<path d="M64.9317 42.2334C64.9317 40.8362 64.8071 39.4678 64.5652 38.138L59.658 41.7629C59.6628 41.9188 59.6652 42.075 59.6652 42.2309C59.6652 51.9196 51.8 59.8032 42.1338 59.8032C32.4676 59.8032 24.6026 51.9196 24.6026 42.2309C24.6026 32.5422 32.4676 24.6588 42.1338 24.6588C45.7981 24.6588 49.2014 25.7918 52.018 27.7267L56.451 24.4499C52.5377 21.2788 47.5561 19.3799 42.1338 19.3799C29.5435 19.3799 19.3359 29.6112 19.3359 42.2309C19.3359 54.8507 29.5435 65.0819 42.1338 65.0819C54.7243 65.0844 64.9317 54.8532 64.9317 42.2334Z" fill="white"/>
<path d="M109.152 55.5257C107.452 57.571 102.983 59.8108 97.1081 59.8108C86.0336 59.7627 78.6523 53.19 78.6523 42.1881C78.6523 31.9161 85.9379 24.6616 97.2063 24.6616C102.549 24.6616 106.482 26.3156 108.475 27.7295V36.2012C106.434 33.1836 102.305 30.2622 97.2063 30.2622C89.7747 30.2622 85.2098 35.0825 85.2098 42.2385C85.2098 48.8594 89.2406 54.0685 97.0602 54.215C102.985 54.215 107.162 51.488 109.155 48.0336V55.5257H109.152Z" fill="white"/>
<path d="M130.715 39.9486H120.127V59.2756H114.443V34.9338H136.396V59.2756H130.715V39.9486Z" fill="white"/>
<path d="M143.875 36.6372C145.477 35.4202 148.392 34.4456 152.569 34.4456C159.66 34.4456 163.157 36.8797 163.157 43.2076V59.2721H157.814V54.8911C156.647 57.7142 153.685 59.6611 149.8 59.6611C144.895 59.6611 141.98 56.8859 141.98 52.1161C141.98 46.5659 146.011 45.008 151.984 45.008H157.474V43.9373C157.474 40.4804 155.823 39.4099 152.569 39.4099C148.1 39.4099 145.525 41.1623 143.875 43.7428V36.6372ZM157.474 50.7045V48.7073H152.665C149.314 48.7073 147.709 49.3411 147.709 51.5303C147.709 53.3811 149.07 54.5479 151.594 54.5479C155.436 54.5502 157.232 52.361 157.474 50.7045Z" fill="white"/>
<path d="M180.982 59.8111C173.211 59.8111 168.064 55.5259 168.064 47.0063C168.064 38.6332 173.31 34.4467 181.033 34.3962C184.289 34.4442 187.203 35.4188 188.805 36.6359V43.7439C187.153 41.1634 184.581 39.411 181.033 39.3629C176.371 39.3629 173.846 41.8452 173.846 46.7639V47.4937C173.846 52.5085 176.564 54.8442 181.131 54.8442C185.162 54.8442 187.835 53.1398 189.049 50.9985V56.8416C187.977 58.2027 184.916 59.8111 180.982 59.8111Z" fill="white"/>
<path d="M194.291 34.9338H199.924V51.4377L211.58 34.9338H216.972V59.2756H211.339V42.5773L199.924 58.9348L199.682 59.2756H194.291V34.9338Z" fill="white"/>
<path d="M245.287 27.3861C244.317 27.9214 241.548 28.3584 237.565 28.6992C229.794 29.4291 228.046 32.497 227.416 39.4587C229.31 36.7315 232.274 34.9311 236.645 34.9311C242.618 34.9311 247.573 37.9487 247.573 46.7611C247.573 55.3768 243.007 59.7603 235.335 59.7603C227.076 59.7603 222.463 54.8439 222.463 43.5971C222.463 30.1612 226.154 24.7575 234.508 23.394C238.248 22.7603 243.299 22.5658 245.291 21.5432V27.3861H245.287ZM234.942 54.6014C238.778 54.6014 241.644 52.5561 241.644 47.2508C241.644 42.188 239.265 39.9963 235.186 39.9963C230.911 39.9963 228.287 42.2841 228.287 46.8115C228.287 51.3391 230.523 54.6014 234.942 54.6014Z" fill="white"/>
<path d="M251.115 47.0063C251.115 38.5853 256.214 34.3962 263.791 34.3962C271.318 34.4442 276.227 38.7292 276.227 47.2008C276.227 55.622 271.125 59.7606 263.598 59.8111C256.019 59.8111 251.115 55.5259 251.115 47.0063ZM256.894 47.1529C256.894 52.5085 259.42 54.8442 263.693 54.8442C268.016 54.8442 270.445 52.3621 270.445 47.2008V47.0544C270.445 41.6988 267.869 39.3629 263.594 39.3629C259.271 39.411 256.892 41.8956 256.892 47.0063V47.1529H256.894Z" fill="white"/>
<defs>
<radialGradient id="paint0_radial" cx="0" cy="0" r="1" gradientUnits="userSpaceOnUse" gradientTransform="translate(33 16.5385) scale(82.5 82.6923)">
<stop offset="0.15" stop-color="#42E3B4"/>
<stop offset="1" stop-color="#42E3B4" stop-opacity="0"/>
</radialGradient>
<radialGradient id="paint1_radial" cx="0" cy="0" r="1" gradientUnits="userSpaceOnUse" gradientTransform="translate(90.75 77.7309) scale(82.5 82.6923)">
<stop offset="0.01" stop-color="#A0E720"/>
<stop offset="1" stop-color="#A0E720" stop-opacity="0"/>
</radialGradient>
<radialGradient id="paint2_radial" cx="0" cy="0" r="1" gradientUnits="userSpaceOnUse" gradientTransform="translate(8.25 82.6923) scale(107.25 82.6923)">
<stop offset="0.1" stop-color="#FAED00"/>
<stop offset="1" stop-color="#FAED00" stop-opacity="0"/>
</radialGradient>
<radialGradient id="paint3_radial" cx="0" cy="0" r="1" gradientUnits="userSpaceOnUse" gradientTransform="translate(181.5 82.6923) scale(82.5 82.6923)">
<stop offset="0.15" stop-color="#00D900"/>
<stop offset="1" stop-color="#00D900" stop-opacity="0"/>
</radialGradient>
<radialGradient id="paint4_radial" cx="0" cy="0" r="1" gradientUnits="userSpaceOnUse" gradientTransform="translate(247.5 82.6923) scale(82.5 82.6923)">
<stop offset="0.15" stop-color="#21A038"/>
<stop offset="1" stop-color="#21A038" stop-opacity="0"/>
</radialGradient>
<radialGradient id="paint5_radial" cx="0" cy="0" r="1" gradientUnits="userSpaceOnUse" gradientTransform="translate(280.5 41.3461) scale(82.5 82.6923)">
<stop offset="0.15" stop-color="#21A038"/>
<stop offset="1" stop-color="#21A038" stop-opacity="0"/>
</radialGradient>
<radialGradient id="paint6_radial" cx="0" cy="0" r="1" gradientUnits="userSpaceOnUse" gradientTransform="translate(214.5) scale(115.5 99.2308)">
<stop offset="0.2" stop-color="#0087CD"/>
<stop offset="0.9" stop-color="#0087CD" stop-opacity="0"/>
</radialGradient>
<radialGradient id="paint7_radial" cx="0" cy="0" r="1" gradientUnits="userSpaceOnUse" gradientTransform="translate(156.75) scale(74.25 57.8846)">
<stop offset="0.1" stop-color="#01A7FA"/>
<stop offset="1" stop-color="#00ADEE" stop-opacity="0"/>
</radialGradient>
</defs>
</svg>
