<svg width="42" height="42" viewBox="0 0 42 42" fill="none" xmlns="http://www.w3.org/2000/svg">
<path d="M20.9486 25.5073C20.2827 25.5073 19.7705 26.0195 19.7705 26.6854C19.7705 27.3512 20.2827 27.8634 20.9486 27.8634C21.6144 27.8634 22.1266 27.3512 22.1266 26.6854C22.1266 26.0707 21.6144 25.5073 20.9486 25.5073Z" fill="#2DDCA9"/>
<path d="M17.0045 14.3413C17.0045 12.5998 18.3874 11.2169 20.1289 11.2169C21.8704 11.2169 23.2533 12.5998 23.2533 14.3413H25.1484C25.1484 11.5754 22.8947 9.32178 20.1289 9.32178C17.363 9.32178 15.1094 11.5754 15.1094 14.3413H17.0045Z" fill="#2DDCA9"/>
<path d="M21.1022 3.94385H19.207V6.86336H21.1022V3.94385Z" fill="#2DDCA9"/>
<path d="M26.6209 6.22281L24.5928 8.25098L25.9328 9.59102L27.961 7.56285L26.6209 6.22281Z" fill="#2DDCA9"/>
<path d="M13.7094 6.21904L12.3691 7.55908L14.5422 9.73243L15.8824 8.39239L13.7094 6.21904Z" fill="#2DDCA9"/>
<path d="M20.8976 21.7169C18.2342 21.7169 16.083 23.8681 16.083 26.5315V26.8389C16.083 29.5023 18.2342 31.6535 20.8976 31.6535H32.2683V32.1145V35.6998H7.93907V17.6706H32.2683V20.3852V20.5901L34.1635 18.695V15.8267H6.04395V37.595H34.1122V31.6535H35.9049V21.7169H20.8976ZM20.8976 29.8096C19.2586 29.8096 17.9269 28.4779 17.9269 26.8389V26.5315C17.9269 24.8925 19.2586 23.5608 20.8976 23.5608H34.061V29.8096H20.8976Z" fill="#2DDCA9"/>
</svg>
