<svg width="42" height="42" viewBox="0 0 42 42" fill="none" xmlns="http://www.w3.org/2000/svg">
<path d="M20.9486 25.5068C20.2827 25.5068 19.7705 26.019 19.7705 26.6849C19.7705 27.3507 20.2827 27.8629 20.9486 27.8629C21.6144 27.8629 22.1266 27.3507 22.1266 26.6849C22.1266 26.0703 21.6144 25.5068 20.9486 25.5068Z" fill="white"/>
<path d="M17.0045 14.3408C17.0045 12.5993 18.3874 11.2164 20.1289 11.2164C21.8704 11.2164 23.2533 12.5993 23.2533 14.3408H25.1484C25.1484 11.5749 22.8947 9.32129 20.1289 9.32129C17.363 9.32129 15.1094 11.5749 15.1094 14.3408H17.0045Z" fill="white"/>
<path d="M21.1022 3.94336H19.207V6.86287H21.1022V3.94336Z" fill="white"/>
<path d="M26.6209 6.22281L24.5928 8.25098L25.9328 9.59102L27.961 7.56285L26.6209 6.22281Z" fill="white"/>
<path d="M13.7094 6.21855L12.3691 7.55859L14.5422 9.73194L15.8824 8.3919L13.7094 6.21855Z" fill="white"/>
<path d="M20.8976 21.7164C18.2342 21.7164 16.083 23.8676 16.083 26.5311V26.8384C16.083 29.5018 18.2342 31.653 20.8976 31.653H32.2683V32.114V35.6993H7.93907V17.6701H32.2683V20.3847V20.5896L34.1635 18.6945V15.8262H6.04395V37.5945H34.1122V31.653H35.9049V21.7164H20.8976ZM20.8976 29.8091C19.2586 29.8091 17.9269 28.4774 17.9269 26.8384V26.5311C17.9269 24.892 19.2586 23.5603 20.8976 23.5603H34.061V29.8091H20.8976Z" fill="white"/>
</svg>
