<svg width="42" height="42" viewBox="0 0 42 42" fill="none" xmlns="http://www.w3.org/2000/svg">
<path d="M29.7581 24.4313C30.4087 24.4313 30.9362 23.9039 30.9362 23.2532C30.9362 22.6026 30.4087 22.0752 29.7581 22.0752C29.1075 22.0752 28.5801 22.6026 28.5801 23.2532C28.5801 23.9039 29.1075 24.4313 29.7581 24.4313Z" fill="white"/>
<path d="M18.3877 32.8311V34.7262C19.0023 34.9823 20.8975 35.1871 22.2292 35.1871C23.5609 35.1871 25.3023 35.1872 25.9682 34.7262V32.8311C25.9682 32.8311 24.2267 33.292 22.2292 33.292C20.1804 33.292 18.3877 32.8311 18.3877 32.8311Z" fill="white"/>
<path d="M34.7269 21.1023C34.0611 20.0779 33.1903 18.7975 32.1147 17.9779L33.7538 14.2901L32.883 13.9316C30.783 13.0097 28.3245 13.5731 26.9416 15.417C25.2001 14.9048 22.6391 14.6487 20.744 14.6487C13.6245 14.6487 9.27084 18.6438 7.99035 23.4584C6.45377 23.7658 4.86596 22.8438 4.40499 21.3072L2.6123 21.8706C3.27816 24.0218 5.27572 25.4048 7.42694 25.4048C7.52938 25.4048 7.63182 25.4048 7.73426 25.4048V25.456C7.73426 28.4267 8.55377 31.2438 11.5757 33.1901V38.0048H18.5416V36.1097H13.4196V32.1145L12.9586 31.8584C10.244 30.2194 9.52694 27.8633 9.57816 25.456C9.62938 20.8975 13.7782 16.5438 20.7952 16.5438C22.7928 16.5438 25.2513 16.8511 27.044 17.4658L27.7611 17.7218L28.1196 17.0048C28.683 15.8779 29.9635 15.3658 31.1928 15.4682L29.7586 18.7462L30.4245 19.2072C31.705 20.0779 32.7294 21.5121 33.3952 22.6389L33.6513 23.0999H36.5196V28.0682H33.6513L33.3952 28.5292C32.883 29.4511 32.166 30.2706 31.244 30.9877L30.8855 31.2438V36.1609H26.3782V38.0048H32.7806V32.0633C33.5489 31.3975 34.2147 30.6292 34.7269 29.8097H38.3635V21.1023H34.7269Z" fill="white"/>
<path d="M16.8944 3.59803L15.0273 3.92285L15.5277 6.79916L17.3948 6.47433L16.8944 3.59803Z" fill="white"/>
<path d="M22.753 4.89719L21.1025 7.24316L22.6526 8.33362L24.303 5.98764L22.753 4.89719Z" fill="white"/>
<path d="M9.98401 7.1531L8.89355 8.70312L11.4071 10.4714L12.4976 8.92141L9.98401 7.1531Z" fill="white"/>
<path d="M14.8029 13.9315C14.8029 13.3169 15.0078 12.7535 15.3663 12.2413C15.8273 11.5754 16.5444 11.1145 17.4151 10.9608C18.9517 10.7047 20.437 11.6266 20.898 13.0608H22.3834C22.537 13.0608 22.6907 13.0608 22.8443 13.0608C22.5883 11.7803 21.8712 10.7047 20.7956 9.9364C19.3102 8.86079 17.3639 8.70713 15.6224 9.57787C15.4175 9.6803 15.2126 9.78274 15.0078 9.9364C13.42 11.1145 12.7029 12.9071 12.959 14.6998C13.5736 14.3925 14.137 14.1364 14.8029 13.9315Z" fill="white"/>
</svg>
