<svg width="42" height="42" viewBox="0 0 42 42" fill="none" xmlns="http://www.w3.org/2000/svg">
<path d="M7.37559 16.3906C7.37559 14.6491 8.75852 13.2662 10.5 13.2662C12.2414 13.2662 13.6244 14.6491 13.6244 16.3906H15.5195C15.5195 13.6248 13.2658 11.3711 10.5 11.3711C7.73413 11.3711 5.48047 13.6248 5.48047 16.3906H7.37559Z" fill="white"/>
<path d="M11.2682 6.04395H9.37305V8.96346H11.2682V6.04395Z" fill="white"/>
<path d="M16.8006 8.33121L14.7725 10.3594L16.1125 11.6994L18.1407 9.67125L16.8006 8.33121Z" fill="white"/>
<path d="M3.87246 8.31719L2.53223 9.65723L4.70527 11.8306L6.0455 10.4905L3.87246 8.31719Z" fill="white"/>
<path d="M8.96289 24.3807C8.96289 24.9954 9.47509 25.5076 10.0897 25.5076C10.7044 25.5076 11.2166 24.9954 11.2166 24.3807C11.2166 23.7661 10.7044 23.2539 10.0897 23.2539C9.47509 23.2539 8.96289 23.7661 8.96289 24.3807Z" fill="white"/>
<path d="M35.1366 6.76074C33.7024 6.76074 32.4219 7.27294 31.7049 7.63147C30.9878 7.27294 29.7073 6.76074 28.2219 6.76074H21.461V9.42416C21.461 11.9339 23.5097 13.9827 26.0195 13.9827H29.2463C29.1439 16.1851 27.8122 17.9266 26.1731 17.9266H0.204851L0.102412 18.8485C0.0511929 19.1046 -0.768319 25.712 3.27802 30.629C5.73656 33.5998 9.37314 35.2388 14.1878 35.5973C14.4439 35.9559 14.7 36.3656 15.0073 36.6729C16.0829 37.9022 17.9268 38.6705 19.9244 38.6705C21.4097 38.6705 22.9463 38.2607 24.278 37.2876L25.0975 36.7242L24.2268 35.3925C34.6756 33.7022 34.6756 23.5607 34.6756 20.129V17.2095L32.5756 15.1095V20.129C32.5756 28.6315 29.6049 32.729 22.9975 33.4461L21.6146 31.2437L19.8219 32.2681L22.178 36.0071C20.078 36.9803 17.6195 36.4681 16.5439 35.1876C15.3146 33.8046 14.9561 33.0876 14.9561 29.7583V29.3485H14.7C12.3439 29.2973 11.0122 28.99 9.01461 27.4534L7.83656 28.9388C9.73168 30.5778 11.4219 31.0388 13.0097 31.1925C13.0097 31.9095 13.1122 32.6266 13.2658 33.2925C9.57802 32.8315 6.76095 31.4998 4.91705 29.1949C2.25363 26.0193 2.04875 21.8193 2.09997 19.9754H26.1731C29.0414 19.9754 31.3463 17.1583 31.3463 13.7266V11.8827H25.9683C24.6366 11.8827 23.5097 10.8071 23.5097 9.42416V8.86074H28.2219C29.7585 8.86074 31.1414 9.68025 31.1414 9.73147L31.7049 10.09L32.2683 9.73147C32.2683 9.73147 33.6 8.86074 35.1366 8.86074H39.9V9.37294C39.9 10.7559 38.7731 11.8827 37.3902 11.8827H32.5756V13.9827H34.6756H37.3902C39.9 13.9827 41.9488 11.9339 41.9488 9.42416V6.81196H35.1366V6.76074Z" fill="white"/>
</svg>
