<svg width="42" height="42" viewBox="0 0 42 42" fill="none" xmlns="http://www.w3.org/2000/svg">
<path d="M29.1946 22.8955C28.5288 22.8955 28.0166 23.4077 28.0166 24.0736C28.0166 24.7394 28.5288 25.2516 29.1946 25.2516C29.8605 25.2516 30.3727 24.7394 30.3727 24.0736C30.3727 23.4077 29.8605 22.8955 29.1946 22.8955Z" fill="white"/>
<path d="M34.4703 19.0031C32.1142 15.7763 28.2216 14.1885 22.8435 14.1885H20.6411C12.5996 14.1885 6.09473 20.6934 6.09473 28.7348V38.4665H13.7777V35.547C13.7777 33.0373 15.263 31.0397 17.1581 31.0397H17.8752C19.7191 31.0397 21.2557 33.0885 21.2557 35.547V38.4153H28.1703V35.9056C28.1703 32.0641 28.5801 29.9641 29.3996 29.7592C29.8094 29.708 29.963 29.8104 30.1167 29.9129C30.9362 30.6299 31.1923 32.986 31.0898 34.4202L31.0386 35.4958H35.5459L35.8533 34.8299C35.9557 34.4202 38.9264 25.047 34.4703 19.0031ZM34.0606 33.447H33.2411C33.1898 32.0129 32.8825 29.5543 31.5508 28.3763C30.885 27.7617 30.0142 27.5568 29.0411 27.7104H28.9898C26.3264 28.3251 26.0703 32.269 26.0703 35.9056V36.3153H23.3045V35.4958C23.3045 31.8592 20.8459 28.8885 17.8752 28.8885H17.1581C14.1362 28.8885 11.7289 31.8592 11.7289 35.4958V36.3153H8.19473V28.6836C8.19473 21.8202 13.7777 16.2373 20.6411 16.2373H22.8435C27.5045 16.2373 30.885 17.569 32.7801 20.2324C35.9557 24.5348 34.624 31.2446 34.0606 33.447Z" fill="white"/>
<path d="M17.5604 3.13807L15.6934 3.46289L16.1938 6.33919L18.0608 6.01437L17.5604 3.13807Z" fill="white"/>
<path d="M23.3682 4.47043L21.7178 6.81641L23.2678 7.90686L24.9182 5.56088L23.3682 4.47043Z" fill="white"/>
<path d="M10.6404 6.61423L9.5498 8.16406L12.063 9.93267L13.1537 8.38284L10.6404 6.61423Z" fill="white"/>
<path d="M21.4602 9.5272C20.3846 8.75891 19.0529 8.45159 17.7212 8.70769C16.3895 8.91257 15.2626 9.68086 14.4943 10.7565C13.7773 11.7809 13.47 13.0613 13.6236 14.2906C14.2383 13.9833 14.8017 13.7272 15.4675 13.5223C15.4675 12.9077 15.6724 12.3443 16.0309 11.8321C16.4919 11.1662 17.209 10.7052 18.0797 10.5516C19.6163 10.2955 21.1017 11.2174 21.5626 12.6516H23.048C23.2017 12.6516 23.3553 12.6516 23.509 12.6516C23.2017 11.3711 22.5358 10.2955 21.4602 9.5272Z" fill="white"/>
<path d="M22.3312 24.33V19.208L20.4873 21.1031V24.3812C20.4873 26.1739 21.9215 27.608 23.7141 27.608V25.7129C22.9458 25.7129 22.3312 25.0983 22.3312 24.33Z" fill="white"/>
</svg>
