<svg width="42" height="42" viewBox="0 0 42 42" fill="none" xmlns="http://www.w3.org/2000/svg">
<path d="M7.37559 16.3901C7.37559 14.6487 8.75852 13.2657 10.5 13.2657C12.2414 13.2657 13.6244 14.6487 13.6244 16.3901H15.5195C15.5195 13.6243 13.2658 11.3706 10.5 11.3706C7.73413 11.3706 5.48047 13.6243 5.48047 16.3901H7.37559Z" fill="#DD72FB"/>
<path d="M11.2682 6.04395H9.37305V8.96346H11.2682V6.04395Z" fill="#DD72FB"/>
<path d="M16.8006 8.33169L14.7725 10.3599L16.1125 11.6999L18.1407 9.67173L16.8006 8.33169Z" fill="#DD72FB"/>
<path d="M3.87246 8.31719L2.53223 9.65723L4.70527 11.8306L6.0455 10.4905L3.87246 8.31719Z" fill="#DD72FB"/>
<path d="M8.96289 24.3807C8.96289 24.9954 9.47509 25.5076 10.0897 25.5076C10.7044 25.5076 11.2166 24.9954 11.2166 24.3807C11.2166 23.7661 10.7044 23.2539 10.0897 23.2539C9.47509 23.2539 8.96289 23.7661 8.96289 24.3807Z" fill="#DD72FB"/>
<path d="M35.1366 6.76123C33.7024 6.76123 32.4219 7.27343 31.7049 7.63196C30.9878 7.27343 29.7073 6.76123 28.2219 6.76123H21.461V9.42465C21.461 11.9344 23.5097 13.9832 26.0195 13.9832H29.2463C29.1439 16.1856 27.8122 17.9271 26.1731 17.9271H0.204851L0.102412 18.849C0.0511929 19.1051 -0.768319 25.7125 3.27802 30.6295C5.73656 33.6003 9.37314 35.2393 14.1878 35.5978C14.4439 35.9564 14.7 36.3661 15.0073 36.6734C16.0829 37.9027 17.9268 38.671 19.9244 38.671C21.4097 38.671 22.9463 38.2612 24.278 37.2881L25.0975 36.7246L24.2268 35.3929C34.6756 33.7027 34.6756 23.5612 34.6756 20.1295V17.21L32.5756 15.11V20.1295C32.5756 28.632 29.6049 32.7295 22.9975 33.4466L21.6146 31.2442L19.8219 32.2685L22.178 36.0076C20.078 36.9807 17.6195 36.4685 16.5439 35.1881C15.3146 33.8051 14.9561 33.0881 14.9561 29.7588V29.349H14.7C12.3439 29.2978 11.0122 28.9905 9.01461 27.4539L7.83656 28.9393C9.73168 30.5783 11.4219 31.0393 13.0097 31.1929C13.0097 31.91 13.1122 32.6271 13.2658 33.2929C9.57802 32.832 6.76095 31.5003 4.91705 29.1954C2.25363 26.0198 2.04875 21.8198 2.09997 19.9759H26.1731C29.0414 19.9759 31.3463 17.1588 31.3463 13.7271V11.8832H25.9683C24.6366 11.8832 23.5097 10.8076 23.5097 9.42465V8.86123H28.2219C29.7585 8.86123 31.1414 9.68074 31.1414 9.73196L31.7049 10.0905L32.2683 9.73196C32.2683 9.73196 33.6 8.86123 35.1366 8.86123H39.9V9.37343C39.9 10.7564 38.7731 11.8832 37.3902 11.8832H32.5756V13.9832H34.6756H37.3902C39.9 13.9832 41.9488 11.9344 41.9488 9.42465V6.81245H35.1366V6.76123Z" fill="#DD72FB"/>
</svg>
