<svg width="42" height="42" viewBox="0 0 42 42" fill="none" xmlns="http://www.w3.org/2000/svg">
<path d="M29.1946 22.8955C28.5288 22.8955 28.0166 23.4077 28.0166 24.0736C28.0166 24.7394 28.5288 25.2516 29.1946 25.2516C29.8605 25.2516 30.3727 24.7394 30.3727 24.0736C30.3727 23.4077 29.8605 22.8955 29.1946 22.8955Z" fill="#FF6252"/>
<path d="M34.4703 19.0026C32.1142 15.7758 28.2216 14.188 22.8435 14.188H20.6411C12.5996 14.188 6.09473 20.6929 6.09473 28.7343V38.466H13.7777V35.5465C13.7777 33.0368 15.263 31.0392 17.1581 31.0392H17.8752C19.7191 31.0392 21.2557 33.088 21.2557 35.5465V38.4148H28.1703V35.9051C28.1703 32.0636 28.5801 29.9636 29.3996 29.7587C29.8094 29.7075 29.963 29.8099 30.1167 29.9124C30.9362 30.6295 31.1923 32.9856 31.0898 34.4197L31.0386 35.4953H35.5459L35.8533 34.8295C35.9557 34.4197 38.9264 25.0465 34.4703 19.0026ZM34.0606 33.4465H33.2411C33.1898 32.0124 32.8825 29.5538 31.5508 28.3758C30.885 27.7612 30.0142 27.5563 29.0411 27.7099H28.9898C26.3264 28.3246 26.0703 32.2685 26.0703 35.9051V36.3148H23.3045V35.4953C23.3045 31.8587 20.8459 28.888 17.8752 28.888H17.1581C14.1362 28.888 11.7289 31.8587 11.7289 35.4953V36.3148H8.19473V28.6831C8.19473 21.8197 13.7777 16.2368 20.6411 16.2368H22.8435C27.5045 16.2368 30.885 17.5685 32.7801 20.2319C35.9557 24.5343 34.624 31.2441 34.0606 33.4465Z" fill="#FF6252"/>
<path d="M17.5604 3.13758L15.6934 3.4624L16.1938 6.3387L18.0608 6.01388L17.5604 3.13758Z" fill="#FF6252"/>
<path d="M23.3682 4.47092L21.7178 6.81689L23.2678 7.90735L24.9182 5.56137L23.3682 4.47092Z" fill="#FF6252"/>
<path d="M10.6404 6.61423L9.5498 8.16406L12.063 9.93267L13.1537 8.38284L10.6404 6.61423Z" fill="#FF6252"/>
<path d="M21.4602 9.5272C20.3846 8.75891 19.0529 8.45159 17.7212 8.70769C16.3895 8.91257 15.2626 9.68086 14.4943 10.7565C13.7773 11.7809 13.47 13.0613 13.6236 14.2906C14.2383 13.9833 14.8017 13.7272 15.4675 13.5223C15.4675 12.9077 15.6724 12.3443 16.0309 11.8321C16.4919 11.1662 17.209 10.7052 18.0797 10.5516C19.6163 10.2955 21.1017 11.2174 21.5626 12.6516H23.048C23.2017 12.6516 23.3553 12.6516 23.509 12.6516C23.2017 11.3711 22.5358 10.2955 21.4602 9.5272Z" fill="#FF6252"/>
<path d="M22.3312 24.3295V19.2075L20.4873 21.1026V24.3807C20.4873 26.1734 21.9215 27.6075 23.7141 27.6075V25.7124C22.9458 25.7124 22.3312 25.0978 22.3312 24.3295Z" fill="#FF6252"/>
</svg>
