<svg xmlns="http://www.w3.org/2000/svg" viewBox="0 0 130 126">
    <defs>
        <style>.cls-1,.cls-2{fill:#42abe1;fill-rule:evenodd}.cls-2{fill:#231f20}</style>
    </defs>
    <title>azoft iogo</title>
    <g id="Слой_2" data-name="Слой 2">
        <g id="Слой_1-2" data-name="Слой 1">
            <path class="cls-1"
                  d="M40.08 125.62q-21.26 0-27.88-1.79c-5.55-1.58-9-4.95-10.5-10.15C.56 109.62 0 101.18 0 88.26A135.37 135.37 0 0 1 1.3 67l.7-3.38-.33-.84Q0 56.77 0 37.47 0 10.88 5.15 5.73 10.81 0 39.19 0a144.53 144.53 0 0 1 22.6 1.4l2.75.6 2.57-.52A149.83 149.83 0 0 1 90.36 0c19.26 0 30.82 1.84 34.7 5.67 3.56 3.46 5.39 14.09 5.39 31.8q0 16.62-2.09 24.88l-.14.5.15.55q2.08 8.29 2.08 24.89 0 26.56-5.25 31.77-5.6 5.54-34 5.57a190.55 190.55 0 0 1-23.11-1l-3.45-.63-1.39.26a150.86 150.86 0 0 1-23.17 1.41zm0-18.78c4 0 7.41-.11 10.19-.33l2.38-.25-.18-2c-.26-4.23-.39-9.56-.39-16q0-7.45.39-13.23l.05-.68h-.58q-5.67.37-12.76.36c-6.94 0-12.65-.15-17.2-.45l-1.93-.19-.33 1.13c-.72 2.81-1.06 7.14-1.06 13 0 9.32.91 14.68 2.68 16.2s8 2.39 18.72 2.39zm72.53-.43V97H88.16l23.73-18v-9H70.94v9.42h22.41L69.93 97.53v8.89zM31.86 55.76v-11.3h14.22l-.15 11.3h12.3V31.41a21.15 21.15 0 0 0-.77-6.2 6.86 6.86 0 0 0-2.87-3.76 14 14 0 0 0-5.8-1.91 74 74 0 0 0-9.67-.54 76.1 76.1 0 0 0-9.9.54 14.56 14.56 0 0 0-5.76 1.82 6.24 6.24 0 0 0-2.65 3.7 23.14 23.14 0 0 0-.65 6v24.7zm78.47-4l.44-1.42c.69-2.77 1.05-7.06 1.05-12.89 0-9.36-.92-14.81-2.64-16.41s-8.08-2.18-18.73-2.18a118 118 0 0 0-12.78.55h-.15l.15 1.08a161.7 161.7 0 0 1 .75 17q0 6.63-.33 11.94l-.16 1.86 3.47-.21c3-.13 6.31-.2 9.86-.2a177.51 177.51 0 0 1 18 .78l1.05.14zM32.16 35l.15-2.89a4.13 4.13 0 0 1 .9-2.19 3.94 3.94 0 0 1 2.13-1.11 17.35 17.35 0 0 1 3.79-.32 17.81 17.81 0 0 1 3.82.32A3.54 3.54 0 0 1 45.1 30a5 5 0 0 1 1 2.28l.25 2.72z"/>
        </g>
    </g>
</svg>
